<?xml version="1.0" encoding="UTF-8" standalone="no"?>
<!-- Created with Inkscape (http://www.inkscape.org/) -->

<svg
   xmlns:dc="http://purl.org/dc/elements/1.1/"
   xmlns:cc="http://creativecommons.org/ns#"
   xmlns:rdf="http://www.w3.org/1999/02/22-rdf-syntax-ns#"
   xmlns:svg="http://www.w3.org/2000/svg"
   xmlns="http://www.w3.org/2000/svg"
   xmlns:sodipodi="http://sodipodi.sourceforge.net/DTD/sodipodi-0.dtd"
   xmlns:inkscape="http://www.inkscape.org/namespaces/inkscape"
   version="1.1"
   id="svg2592"
   xml:space="preserve"
   width="1066.6667"
   height="1066.6667"
   viewBox="0 0 1066.6667 1066.6667"
   sodipodi:docname="chef-hat-knives-pubicdomainvectors.org.svg"
   inkscape:version="0.92.4 (5da689c313, 2019-01-14)"><metadata
     id="metadata2598"><rdf:RDF><cc:Work
         rdf:about=""><dc:format>image/svg+xml</dc:format><dc:type
           rdf:resource="http://purl.org/dc/dcmitype/StillImage" /><dc:title></dc:title></cc:Work></rdf:RDF></metadata><defs
     id="defs2596"><clipPath
       clipPathUnits="userSpaceOnUse"
       id="clipPath2608"><path
         d="M 0,800 H 800 V 0 H 0 Z"
         id="path2606"
         inkscape:connector-curvature="0" /></clipPath></defs><sodipodi:namedview
     pagecolor="#FFFFFF"
     bordercolor="#FFFFFF"
     borderopacity="1"
     objecttolerance="10"
     gridtolerance="10"
     guidetolerance="10"
     inkscape:pageopacity="0"
     inkscape:pageshadow="2"
     inkscape:window-width="1920"
     inkscape:window-height="1018"
     id="namedview2594"
     showgrid="false"
     inkscape:zoom="0.71695128"
     inkscape:cx="533.33337"
     inkscape:cy="542.37292"
     inkscape:window-x="-8"
     inkscape:window-y="-8"
     inkscape:window-maximized="1"
     inkscape:current-layer="g2600" /><g
     id="g2600"
     inkscape:groupmode="layer"
     inkscape:label="chef-hat-knives-pubicdomainvectors.org"
     transform="matrix(1.3333333,0,0,-1.3333333,0,1066.6667)"><g
       id="g2602"><g
         id="g2604"
         clip-path="url(#clipPath2608)"><path
           d="m 84.709,614.317 c -4.506,0 -8.17,-3.665 -8.17,-8.171 0,-4.507 3.664,-8.17 8.17,-8.17 4.506,0 8.172,3.663 8.172,8.17 0,4.506 -3.666,8.171 -8.172,8.171 m 0,-19.172 c -6.066,0 -11.001,4.935 -11.001,11.001 0,6.067 4.935,11.002 11.001,11.002 6.067,0 11.002,-4.935 11.002,-11.002 0,-6.066 -4.935,-11.001 -11.002,-11.001"
           style="fill:#ffffff;fill-opacity:1;fill-rule:nonzero;stroke:none"
           id="path2610"
           inkscape:connector-curvature="0" /><path
           d="m 710.406,596.56 c -5.295,0 -9.586,4.29 -9.586,9.585 0,5.296 4.291,9.587 9.586,9.587 5.295,0 9.586,-4.291 9.586,-9.587 0,-5.295 -4.291,-9.585 -9.586,-9.585 m -62.845,-51.129 c -5.294,0 -9.587,4.291 -9.587,9.586 0,5.295 4.293,9.587 9.587,9.587 5.294,0 9.585,-4.292 9.585,-9.587 0,-5.295 -4.291,-9.586 -9.585,-9.586 m -62.846,-48.999 c -5.295,0 -9.587,4.293 -9.587,9.586 0,5.296 4.292,9.586 9.587,9.586 5.295,0 9.586,-4.29 9.586,-9.586 0,-5.293 -4.291,-9.586 -9.586,-9.586 m -4.102,-85.958 c -0.27,-0.247 -0.557,-0.511 -0.833,-0.763 l -58.084,66.716 c 3.603,3.219 7.13,6.361 10.569,9.42 l 31.857,-34.804 c -0.316,-12.897 8.791,-27.94 16.491,-40.569 m -12.061,-11.041 c -24.869,-22.804 -60.188,-55.183 -100.717,-89.122 -20.694,20.261 -41.875,40.617 -62.43,60.127 40.288,37.463 79.863,73.417 113.112,103.149 l 58.116,-66.752 c -2.551,-2.333 -5.237,-4.795 -8.081,-7.402 m -341.99,0 c -2.843,2.607 -5.53,5.069 -8.08,7.402 l 58.117,66.752 C 383.956,377.582 557.245,216.746 607.706,149.461 485.373,162.127 304.586,327.891 226.562,399.433 M 187.409,149.461 c 23.655,31.543 74.305,83.646 132.5,139.99 l 60.846,-47.17 C 314.51,194.734 244.577,155.379 187.409,149.461 M 214.5,410.474 c 7.701,12.629 16.81,27.672 16.493,40.569 l 31.859,34.804 c 3.438,-3.059 6.962,-6.201 10.567,-9.42 l -58.083,-66.716 c -0.276,0.252 -0.564,0.516 -0.836,0.763 m -4.1,85.958 c -5.295,0 -9.586,4.293 -9.586,9.586 0,5.296 4.291,9.586 9.586,9.586 5.295,0 9.587,-4.29 9.587,-9.586 0,-5.293 -4.292,-9.586 -9.587,-9.586 m -62.844,48.999 c -5.295,0 -9.587,4.291 -9.587,9.586 0,5.295 4.292,9.587 9.587,9.587 5.294,0 9.587,-4.292 9.587,-9.587 0,-5.295 -4.293,-9.586 -9.587,-9.586 M 84.708,596.56 c -5.294,0 -9.585,4.29 -9.585,9.585 0,5.296 4.291,9.587 9.585,9.587 5.296,0 9.587,-4.291 9.587,-9.587 0,-5.295 -4.291,-9.585 -9.587,-9.585 M 485.271,495.271 c -1.9,0.908 -3.825,1.767 -5.738,2.652 -1.923,0.867 -3.877,1.66 -5.814,2.494 -3.905,1.6 -7.849,3.111 -11.838,4.503 -3.993,1.387 -8.024,2.671 -12.092,3.834 -8.138,2.329 -16.424,4.197 -24.8,5.58 -8.377,1.384 -16.845,2.285 -25.35,2.686 -4.251,0.199 -8.512,0.271 -12.776,0.23 -4.262,-0.053 -8.525,-0.233 -12.785,-0.523 -2.128,-0.133 -4.251,-0.362 -6.38,-0.542 -2.125,-0.202 -4.243,-0.488 -6.366,-0.731 -2.122,-0.27 -4.23,-0.613 -6.348,-0.916 -2.111,-0.337 -4.211,-0.737 -6.32,-1.105 -2.101,-0.405 -4.193,-0.861 -6.29,-1.291 l -6.253,-1.475 -6.209,-1.658 -6.163,-1.841 -6.11,-2.021 -6.05,-2.2 -0.069,-0.028 c -0.021,0.136 -0.038,0.27 -0.057,0.407 l -0.603,4.345 c -0.219,1.452 -0.35,2.896 -0.523,4.345 l -0.462,4.076 c 1.065,0.463 2.249,0.928 3.538,1.442 1.47,0.605 3.082,1.202 4.817,1.822 1.723,0.649 3.585,1.272 5.552,1.919 1.955,0.679 4.051,1.281 6.229,1.952 2.175,0.667 4.475,1.258 6.842,1.925 2.388,0.583 4.842,1.258 7.398,1.819 5.093,1.199 10.52,2.244 16.157,3.219 5.646,0.899 11.504,1.77 17.493,2.336 2.987,0.346 6.015,0.525 9.049,0.779 3.039,0.158 6.091,0.381 9.147,0.439 6.114,0.23 12.235,0.156 18.255,-0.085 6.021,-0.24 11.928,-0.794 17.629,-1.483 5.684,-0.783 11.176,-1.659 16.305,-2.86 5.154,-1.104 9.938,-2.517 14.323,-3.911 2.186,-0.726 4.245,-1.516 6.224,-2.217 1.94,-0.806 3.781,-1.568 5.509,-2.284 1.703,-0.778 3.273,-1.557 4.741,-2.25 1.478,-0.675 2.744,-1.466 3.938,-2.088 1.567,-0.816 2.834,-1.593 3.886,-2.255 l 0.32,-14.034 c 0.063,-2.013 0.124,-4.036 0.223,-6.087 z m -192.197,87.306 c -9.333,0.99 -20.831,3.293 -32.82,8.393 -5.963,2.551 -12.044,5.826 -17.501,10.072 -2.717,2.121 -5.269,4.482 -7.485,7.073 -2.162,2.611 -4.053,5.425 -5.291,8.434 -0.677,1.492 -1.097,3.048 -1.479,4.621 -0.339,1.58 -0.497,3.204 -0.55,4.859 0.015,3.318 0.563,6.806 1.906,10.361 2.591,7.126 7.724,14.335 14.179,20.952 1.627,1.652 3.293,3.303 5.072,4.899 0.863,0.815 1.769,1.604 2.691,2.388 l 1.376,1.184 0.343,0.298 c 0.174,0.144 -0.048,-0.033 0.047,0.042 l 0.189,0.151 0.756,0.606 c 1.544,1.22 3.394,2.471 5.351,3.605 1.961,1.142 4.055,2.208 6.242,3.211 8.782,4.008 18.894,7.003 29.343,9.907 10.484,2.897 21.416,5.662 32.5,9.027 9.449,2.869 19.037,6.169 28.468,10.434 -0.046,-0.052 -0.093,-0.101 -0.14,-0.154 -0.509,-0.563 -1.025,-1.13 -1.547,-1.705 -0.548,-0.551 -1.098,-1.105 -1.654,-1.668 -1.114,-1.123 -2.247,-2.265 -3.394,-3.423 -1.202,-1.102 -2.42,-2.218 -3.648,-3.341 -2.414,-2.311 -5.092,-4.386 -7.712,-6.558 -1.292,-1.112 -2.671,-2.104 -4.045,-3.097 -1.372,-1.001 -2.738,-1.999 -4.094,-2.99 l -1.016,-0.742 -1.053,-0.676 c -0.7,-0.449 -1.397,-0.898 -2.088,-1.344 -1.391,-0.894 -2.763,-1.775 -4.112,-2.643 -1.331,-0.911 -2.749,-1.601 -4.09,-2.378 -1.351,-0.753 -2.675,-1.492 -3.964,-2.211 -2.545,-1.518 -5.127,-2.587 -7.447,-3.731 -1.166,-0.555 -2.288,-1.088 -3.352,-1.595 -0.534,-0.253 -1.054,-0.501 -1.56,-0.74 -0.517,-0.206 -1.022,-0.406 -1.511,-0.601 -1.958,-0.773 -3.665,-1.45 -5.072,-2.006 -2.82,-1.116 -4.433,-1.752 -4.433,-1.752 0,0 1.673,0.447 4.602,1.229 1.471,0.394 3.254,0.871 5.302,1.419 0.513,0.137 1.041,0.28 1.585,0.426 0.534,0.182 1.081,0.369 1.642,0.561 1.128,0.383 2.314,0.788 3.549,1.208 2.46,0.879 5.205,1.664 7.945,2.893 1.387,0.577 2.814,1.171 4.273,1.775 1.449,0.629 2.982,1.171 4.436,1.937 1.48,0.723 2.981,1.461 4.501,2.207 0.763,0.374 1.529,0.75 2.297,1.127 l 1.161,0.57 1.127,0.638 c 1.51,0.854 3.031,1.715 4.556,2.582 1.534,0.86 3.078,1.722 4.542,2.708 2.959,1.923 5.995,3.766 8.779,5.871 1.415,1.026 2.823,2.043 4.208,3.048 1.34,1.07 2.665,2.127 3.967,3.168 0.653,0.521 1.299,1.041 1.941,1.554 0.618,0.538 1.231,1.072 1.837,1.601 1.21,1.065 2.396,2.107 3.548,3.12 1.114,1.061 2.196,2.094 3.246,3.094 1.053,0.995 2.055,1.975 2.977,2.962 0.936,0.975 1.833,1.907 2.687,2.795 0.821,0.924 1.603,1.8 2.335,2.622 1.478,1.641 2.682,3.172 3.704,4.412 0.99,1.275 1.77,2.274 2.328,3.079 0.509,0.72 0.78,1.102 0.78,1.102 l -0.502,0.303 c 0.333,0.274 0.676,0.532 1.006,0.812 1.212,1.028 2.413,2.079 3.573,3.181 l 1.586,1.485 c 0.525,0.485 1.104,1.043 1.526,1.391 0.876,0.78 1.885,1.611 2.892,2.395 1.012,0.778 2.045,1.516 3.096,2.213 2.106,1.39 4.296,2.599 6.555,3.598 4.521,1.997 9.323,3.177 14.263,3.403 9.9,0.515 20.179,-2.716 29.573,-7.898 9.432,-5.199 18.098,-12.213 25.914,-19.999 3.913,-3.902 7.631,-8.002 11.142,-12.259 1.757,-2.127 3.467,-4.29 5.128,-6.482 0.826,-1.098 1.645,-2.201 2.45,-3.315 l 1.198,-1.671 0.706,-0.991 0.633,-0.854 c 1.626,-2.22 3.427,-4.272 5.334,-6.182 1.03,-1.952 2.433,-4.561 4.164,-7.652 3.728,-6.679 8.899,-15.467 14.597,-23.922 1.415,-2.117 2.878,-4.208 4.341,-6.244 1.467,-2.037 2.957,-4.007 4.422,-5.894 1.484,-1.873 2.949,-3.659 4.387,-5.313 1.444,-1.65 2.854,-3.169 4.196,-4.529 0.685,-0.666 1.325,-1.32 1.964,-1.913 0.643,-0.581 1.255,-1.135 1.833,-1.656 1.199,-0.988 2.233,-1.851 3.152,-2.479 0.88,-0.673 1.638,-1.111 2.138,-1.426 0.502,-0.313 0.77,-0.478 0.77,-0.478 0,0 -0.244,0.2 -0.701,0.576 -0.455,0.378 -1.138,0.905 -1.917,1.681 -0.815,0.732 -1.718,1.715 -2.755,2.827 -0.492,0.58 -1.016,1.199 -1.568,1.849 -0.543,0.659 -1.084,1.379 -1.66,2.112 -1.129,1.493 -2.3,3.15 -3.487,4.935 -1.182,1.787 -2.375,3.711 -3.572,5.718 -1.179,2.022 -2.371,4.124 -3.529,6.29 -1.161,2.167 -2.309,4.381 -3.411,6.622 -2.931,5.902 -5.612,11.904 -7.897,17.314 2.706,-1.561 5.432,-2.983 8.137,-4.317 10.274,-4.986 20.31,-8.842 29.346,-13.489 4.508,-2.298 8.811,-4.806 12.642,-7.551 3.529,-2.565 6.689,-5.861 9.271,-9.469 5.181,-7.25 8.249,-15.871 8.913,-24.195 0.69,-8.335 -1.188,-16.367 -5.375,-22.379 -2.07,-3.024 -4.687,-5.554 -7.644,-7.566 -1.477,-1.008 -3.036,-1.89 -4.647,-2.655 l -1.167,-0.533 -1.41,-0.587 c -0.938,-0.391 -1.87,-0.781 -2.795,-1.166 -7.13,-2.918 -14.233,-5.276 -20.908,-7.129 -13.4,-3.718 -25.452,-5.438 -35.376,-6.045 -7.488,-0.47 -13.765,-0.338 -18.642,-0.01 -0.248,0.221 -0.485,0.454 -0.735,0.669 -3.362,2.903 -7.013,5.393 -10.809,7.525 -1.671,0.939 -3.372,1.796 -5.09,2.603 0.036,0.012 0.069,0.024 0.104,0.037 3.738,1.408 7.539,2.949 11.299,4.656 3.781,1.676 7.519,3.506 11.241,5.34 7.418,3.694 14.664,7.548 21.544,10.838 3.441,1.653 6.792,3.158 10.027,4.408 3.223,1.301 6.345,2.259 9.268,2.981 0.735,0.158 1.455,0.311 2.159,0.461 0.705,0.159 1.4,0.206 2.079,0.312 1.358,0.236 2.649,0.229 3.875,0.293 1.22,0.018 2.356,-0.112 3.42,-0.174 1.035,-0.201 2.006,-0.35 2.869,-0.552 0.843,-0.273 1.598,-0.52 2.254,-0.733 0.658,-0.221 1.161,-0.537 1.6,-0.728 0.866,-0.422 1.329,-0.647 1.329,-0.647 0,0 -0.432,0.281 -1.241,0.803 -0.416,0.245 -0.891,0.627 -1.524,0.931 -0.641,0.299 -1.379,0.643 -2.205,1.026 -0.854,0.315 -1.829,0.59 -2.888,0.93 -1.081,0.2 -2.26,0.481 -3.534,0.617 -1.276,0.091 -2.65,0.259 -4.085,0.188 -0.718,-0.022 -1.468,0.013 -2.217,-0.061 -0.754,-0.066 -1.523,-0.135 -2.312,-0.206 -3.129,-0.375 -6.509,-0.983 -9.978,-1.911 -3.49,-0.885 -7.105,-2.004 -10.792,-3.252 -7.386,-2.486 -15.081,-5.448 -22.772,-8.171 -3.845,-1.345 -7.682,-2.675 -11.472,-3.828 -3.783,-1.19 -7.519,-2.195 -11.127,-3.074 -3.616,-0.822 -7.104,-1.55 -10.405,-1.985 -0.823,-0.117 -1.635,-0.23 -2.435,-0.341 -0.798,-0.075 -1.586,-0.149 -2.358,-0.222 -1.544,-0.179 -3.029,-0.231 -4.448,-0.286 -0.355,-0.021 -0.694,-0.02 -1.039,-0.03 -6.586,1.364 -13.216,2.262 -19.838,2.806 -7.059,0.595 -14.11,0.773 -21.14,0.715 2.386,1.408 4.813,2.874 7.272,4.412 8.102,5.062 16.494,10.809 24.606,16.911 16.21,12.188 31.316,25.914 40.651,37.99 4.666,6.012 7.825,11.659 8.984,15.983 0.599,2.148 0.708,3.915 0.631,5.094 -0.025,0.592 -0.102,1.039 -0.165,1.338 -0.054,0.299 -0.084,0.451 -0.084,0.451 0,0 0.014,-0.155 0.041,-0.458 0.035,-0.302 0.072,-0.749 0.04,-1.334 -0.031,-1.164 -0.3,-2.869 -1.073,-4.894 -1.508,-4.071 -5.07,-9.249 -10.149,-14.671 -10.168,-10.899 -26.19,-22.945 -43.083,-33.341 -8.451,-5.208 -17.124,-10.029 -25.405,-14.186 -8.277,-4.167 -16.155,-7.677 -22.978,-10.386 -5.856,-2.325 -10.914,-4.073 -14.782,-5.284 -5.732,-0.685 -11.442,-1.493 -17.128,-2.425 -1.543,-0.251 -3.084,-0.522 -4.623,-0.793 -0.629,0.154 -1.286,0.32 -1.989,0.503 -1.927,0.517 -4.121,1.169 -6.509,1.958 -2.385,0.798 -4.977,1.694 -7.676,2.766 -2.715,1.044 -5.534,2.257 -8.437,3.56 -2.875,1.347 -5.847,2.771 -8.77,4.381 -2.955,1.566 -5.844,3.33 -8.708,5.149 -2.811,1.88 -5.6,3.822 -8.162,5.941 -0.642,0.529 -1.294,1.044 -1.92,1.579 -0.613,0.552 -1.219,1.102 -1.822,1.647 -1.248,1.066 -2.305,2.262 -3.443,3.376 -1.069,1.159 -2.09,2.336 -3.062,3.509 -0.459,0.606 -0.912,1.207 -1.361,1.799 -0.223,0.299 -0.447,0.595 -0.672,0.89 -0.207,0.301 -0.394,0.612 -0.592,0.915 -0.776,1.222 -1.579,2.397 -2.166,3.63 -0.319,0.607 -0.633,1.205 -0.94,1.792 -0.284,0.596 -0.503,1.205 -0.752,1.792 -0.243,0.591 -0.48,1.17 -0.71,1.736 -0.175,0.586 -0.344,1.158 -0.511,1.716 -0.164,0.56 -0.327,1.108 -0.481,1.64 -0.152,0.535 -0.208,1.07 -0.312,1.582 -0.156,1.031 -0.418,1.997 -0.457,2.906 -0.058,0.911 -0.112,1.749 -0.16,2.505 -0.082,0.762 -0.014,1.437 0.014,2.029 0.028,0.593 0.055,1.099 0.074,1.506 0.044,0.823 0.067,1.262 0.067,1.262 0,0 -0.086,-0.429 -0.244,-1.235 -0.08,-0.406 -0.176,-0.905 -0.293,-1.493 -0.11,-0.59 -0.276,-1.267 -0.303,-2.041 -0.062,-0.776 -0.128,-1.633 -0.202,-2.569 -0.091,-0.939 0.03,-1.951 0.041,-3.045 0.03,-0.543 0.011,-1.117 0.089,-1.69 0.083,-0.577 0.167,-1.169 0.253,-1.776 0.092,-0.612 0.186,-1.239 0.283,-1.881 0.156,-0.629 0.316,-1.271 0.481,-1.929 0.171,-0.656 0.317,-1.34 0.525,-2.015 0.238,-0.669 0.475,-1.348 0.718,-2.039 0.446,-1.412 1.112,-2.771 1.759,-4.202 0.164,-0.355 0.32,-0.72 0.497,-1.075 0.19,-0.347 0.382,-0.695 0.575,-1.046 0.389,-0.704 0.784,-1.417 1.18,-2.137 0.857,-1.399 1.767,-2.815 2.737,-4.223 1.029,-1.35 2.004,-2.814 3.157,-4.132 0.562,-0.674 1.127,-1.355 1.697,-2.039 0.583,-0.667 1.194,-1.312 1.8,-1.974 2.414,-2.655 5.066,-5.135 7.772,-7.562 2.48,-2.129 5.012,-4.198 7.597,-6.13 -4.169,-0.176 -9.263,-0.119 -15.186,0.492 m 16.034,-57.525 -0.254,4.337 c -0.098,1.45 -0.094,2.878 -0.149,4.323 l -0.061,2.163 0.005,2.146 c 0.011,1.429 -0.008,2.873 0.07,4.282 0.053,1.418 0.088,2.849 0.215,4.239 l 0.158,2.102 0.232,2.062 c 0.067,0.697 0.18,1.357 0.281,2.028 0.097,0.678 0.208,1.339 0.343,1.971 0.109,0.596 0.24,1.141 0.373,1.681 0.097,0.036 0.199,0.072 0.291,0.107 0.879,0.31 1.785,0.609 2.706,0.9 1.841,0.581 3.729,1.127 5.628,1.651 3.799,1.049 7.657,2.006 11.535,2.895 7.756,1.778 15.594,3.302 23.462,4.592 15.741,2.578 31.634,4.246 47.492,4.624 7.921,0.159 15.837,0.017 23.669,-0.644 7.833,-0.639 15.589,-1.775 23.092,-3.624 7.493,-1.845 14.755,-4.416 21.26,-8.077 6.106,-3.417 11.488,-7.835 15.558,-13.22 1.144,-9.685 1.584,-19.58 1.853,-29.545 l 0.034,-1.521 c -1.005,0.692 -2.212,1.502 -3.697,2.357 -1.169,0.678 -2.409,1.527 -3.86,2.269 -1.443,0.759 -2.989,1.608 -4.667,2.467 -1.71,0.796 -3.528,1.644 -5.446,2.537 -1.961,0.792 -4.005,1.679 -6.175,2.505 -4.363,1.598 -9.136,3.235 -14.295,4.577 -5.138,1.439 -10.653,2.564 -16.38,3.609 -5.741,0.944 -11.707,1.765 -17.804,2.273 -6.094,0.507 -12.306,0.853 -18.523,0.887 -3.11,0.074 -6.217,-0.017 -9.316,-0.045 -3.094,-0.124 -6.183,-0.175 -9.24,-0.394 -6.119,-0.314 -12.121,-0.941 -17.927,-1.61 -5.791,-0.745 -11.387,-1.576 -16.658,-2.581 -2.643,-0.459 -5.191,-1.042 -7.671,-1.534 -2.459,-0.582 -4.85,-1.088 -7.124,-1.677 -2.275,-0.595 -4.462,-1.125 -6.518,-1.738 -2.065,-0.582 -4.022,-1.145 -5.847,-1.743 -1.829,-0.564 -3.538,-1.116 -5.103,-1.682 -0.522,-0.182 -1.007,-0.351 -1.501,-0.522 -0.01,0.192 -0.033,0.383 -0.041,0.573 m 437.767,101.619 c -12.041,35.969 -48.501,26.951 -64.657,11.506 -9.289,-8.881 -122.343,-110.762 -151.544,-137.784 -3.005,-2.673 -7.583,-6.753 -13.48,-12.03 l -0.436,-0.381 0.004,-0.007 c -4.111,-3.681 -8.727,-7.943 -13.969,-12.689 l -2.628,11.053 v 0.003 c 0,0.686 -0.919,1.817 -1.054,2.964 -0.137,1.163 -0.528,2.381 -0.61,3.632 -0.174,2.493 -0.384,5.078 -0.464,7.665 l -0.442,15.727 c -0.287,10.563 -0.772,21.222 -2.117,31.958 l -0.169,1.216 c 3.102,-0.044 6.465,-0.005 10.117,0.17 10.573,0.488 23.38,2.124 37.619,5.849 7.137,1.87 14.546,4.2 22.314,7.245 0.932,0.373 1.87,0.747 2.812,1.124 l 1.419,0.567 1.646,0.717 c 2.118,0.964 4.215,2.104 6.238,3.44 4.047,2.663 7.797,6.159 10.766,10.363 2.996,4.185 5.172,9.035 6.469,14.12 1.292,5.092 1.715,10.414 1.376,15.715 -0.708,10.602 -4.303,21.19 -10.698,30.473 -3.224,4.633 -7.135,8.901 -11.93,12.504 -4.534,3.354 -9.282,6.188 -14.166,8.777 -9.746,5.176 -19.895,9.251 -29.346,14.032 -9.412,4.771 -18.145,10.394 -23.717,18.313 l -0.622,0.862 -0.515,0.75 -1.253,1.806 c -0.842,1.202 -1.701,2.395 -2.568,3.583 -1.745,2.376 -3.544,4.72 -5.399,7.037 -3.705,4.634 -7.659,9.129 -11.864,13.451 -8.418,8.621 -17.88,16.605 -28.855,22.882 -5.488,3.119 -11.371,5.784 -17.657,7.65 -6.27,1.874 -12.987,2.873 -19.785,2.65 -6.794,-0.2 -13.612,-1.756 -19.851,-4.411 -3.123,-1.326 -6.103,-2.918 -8.912,-4.712 -1.403,-0.899 -2.767,-1.843 -4.089,-2.831 -1.318,-0.99 -2.587,-1.998 -3.908,-3.143 -0.703,-0.586 -1.18,-1.04 -1.734,-1.538 l -1.635,-1.486 c -0.971,-0.895 -1.982,-1.752 -3.005,-2.594 -2.049,-1.682 -4.185,-3.275 -6.405,-4.766 -4.441,-2.985 -9.164,-5.62 -14.072,-7.96 -9.831,-4.67 -20.318,-8.2 -30.95,-11.251 -10.641,-3.059 -21.446,-5.627 -32.221,-8.429 -10.771,-2.842 -21.563,-5.778 -32.157,-10.398 -2.642,-1.164 -5.271,-2.447 -7.859,-3.901 -2.592,-1.458 -5.11,-3.067 -7.656,-5.02 l -0.764,-0.597 -0.518,-0.413 -0.394,-0.329 -1.574,-1.312 c -1.051,-0.869 -2.09,-1.748 -3.102,-2.67 -2.05,-1.792 -4.027,-3.681 -5.966,-5.594 -3.857,-3.858 -7.473,-7.988 -10.674,-12.5 -3.198,-4.51 -5.984,-9.42 -8.034,-14.751 -2.08,-5.302 -3.234,-11.142 -3.304,-16.974 0.018,-2.922 0.275,-5.832 0.832,-8.657 0.598,-2.804 1.358,-5.559 2.436,-8.11 2.06,-5.167 4.988,-9.627 8.139,-13.533 3.198,-3.869 6.685,-7.161 10.245,-10.027 7.145,-5.721 14.553,-9.792 21.674,-12.979 7.137,-3.172 14.027,-5.444 20.498,-7.106 6.469,-1.675 12.522,-2.722 18.043,-3.392 3.49,-0.415 6.741,-0.65 9.787,-0.78 -0.008,-0.017 -0.021,-0.043 -0.028,-0.061 -0.184,-0.423 -0.395,-0.88 -0.538,-1.275 -0.321,-0.823 -0.623,-1.64 -0.869,-2.429 -0.28,-0.804 -0.516,-1.597 -0.729,-2.38 -0.224,-0.79 -0.457,-1.584 -0.632,-2.361 l -0.562,-2.351 -0.473,-2.337 c -0.334,-1.564 -0.565,-3.113 -0.817,-4.668 -0.276,-1.56 -0.449,-3.103 -0.651,-4.654 l -0.29,-2.328 -0.22,-2.319 c -0.133,-1.544 -0.324,-3.1 -0.409,-4.638 l -0.297,-4.631 c -0.119,-1.55 -0.129,-3.078 -0.199,-4.62 -0.05,-1.54 -0.124,-3.085 -0.152,-4.622 l -0.045,-4.606 c -0.003,-1.535 -0.053,-3.082 -0.01,-4.607 l 0.07,-4.595 c 0.035,-1.53 0.024,-3.073 0.098,-4.596 l 0.358,-9.17 0.5,-12.784 13.322,5.07 5.296,2.567 5.372,2.415 5.443,2.26 5.51,2.097 5.571,1.94 5.631,1.776 5.682,1.612 5.732,1.444 c 1.925,0.421 3.845,0.88 5.777,1.275 1.935,0.365 3.869,0.772 5.813,1.108 1.947,0.307 3.893,0.662 5.847,0.936 1.96,0.25 3.914,0.555 5.877,0.765 3.927,0.445 7.868,0.788 11.821,1.012 3.951,0.215 7.912,0.326 11.876,0.315 7.928,-0.02 15.865,-0.505 23.761,-1.45 7.893,-0.946 15.747,-2.35 23.505,-4.2 3.878,-0.925 7.734,-1.966 11.562,-3.108 3.827,-1.146 7.622,-2.408 11.387,-3.759 1.872,-0.711 3.76,-1.38 5.621,-2.12 1.852,-0.76 3.72,-1.493 5.563,-2.275 l 5.509,-2.43 5.45,-2.579 10.728,-5.076 0.066,-0.01 0.007,-0.026 -0.073,0.036 c -25.62,-23.201 -63.62,-58.169 -104.783,-97.11 -49.803,47.115 -94.993,88.426 -119.204,110.102 l 0.005,0.007 -0.438,0.381 c -5.898,5.277 -10.475,9.357 -13.48,12.03 -29.201,27.022 -142.254,128.903 -151.545,137.784 -16.155,15.445 -52.614,24.463 -64.655,-11.506 -4.423,-13.214 -2.944,-24.309 0.138,-32.635 2.413,-16.697 13.163,-26.503 13.163,-26.503 6.745,-4.616 34.957,6.719 46.513,-8.165 9.714,-12.519 22.798,-36.186 37.28,-45.982 15.957,-10.794 58.418,-28.149 76.976,-54.163 0.606,-9.764 -2.86,-23.905 -7.301,-35.396 -2.008,-3.533 -4.122,-7.002 -6.127,-10.288 l -2.581,-4.244 1.948,-1.773 c 4.166,-3.79 8.846,-8.081 13.994,-12.801 24.835,-22.772 60.021,-55.033 100.459,-88.903 C 263.236,247.424 208.543,190.416 185.531,157.541 l -0.179,-0.248 c -2.665,-3.436 -5.098,-6.701 -7.225,-9.74 l -3.777,-5.395 6.575,0.373 c 63.437,3.594 143.123,49.881 216.633,104.133 73.509,-54.252 153.197,-100.539 216.632,-104.133 l 6.577,-0.373 -3.779,5.395 c -2.127,3.041 -4.562,6.306 -7.225,9.742 l -0.179,0.246 c -23.014,32.875 -77.705,89.883 -137.171,148.277 40.438,33.87 75.623,66.131 100.458,88.903 5.148,4.72 9.827,9.011 13.994,12.801 l 1.948,1.773 -2.581,4.244 c -2.005,3.286 -4.119,6.755 -6.127,10.288 -4.442,11.491 -7.907,25.632 -7.298,35.396 18.555,26.014 61.015,43.369 76.973,54.163 14.483,9.796 27.566,33.463 37.281,45.982 11.554,14.884 39.767,3.549 46.512,8.165 0,0 10.751,9.806 13.163,26.504 3.082,8.327 4.561,19.421 0.139,32.634"
           style="fill:#70483C;fill-opacity:1;fill-rule:nonzero;stroke:none"
           id="path2612"
           inkscape:connector-curvature="0" /></g></g></g></svg>